<svg width="48" height="48" viewBox="0 0 48 48" fill="none" xmlns="http://www.w3.org/2000/svg">
<path d="M16 6C14.9391 6 13.9217 6.42143 13.1716 7.17157C12.4214 7.92172 12 8.93913 12 10V18C12 19.0609 11.5786 20.0783 10.8284 20.8284C10.0783 21.5786 9.06087 22 8 22H6V26H8C9.06087 26 10.0783 26.4214 10.8284 27.1716C11.5786 27.9217 12 28.9391 12 30V38C12 39.0609 12.4214 40.0783 13.1716 40.8284C13.9217 41.5786 14.9391 42 16 42H20V38H16V28C16 26.9391 15.5786 25.9217 14.8284 25.1716C14.0783 24.4214 13.0609 24 12 24C13.0609 24 14.0783 23.5786 14.8284 22.8284C15.5786 22.0783 16 21.0609 16 20V10H20V6H16ZM32 6C33.0609 6 34.0783 6.42143 34.8284 7.17157C35.5786 7.92172 36 8.93913 36 10V18C36 19.0609 36.4214 20.0783 37.1716 20.8284C37.9217 21.5786 38.9391 22 40 22H42V26H40C38.9391 26 37.9217 26.4214 37.1716 27.1716C36.4214 27.9217 36 28.9391 36 30V38C36 39.0609 35.5786 40.0783 34.8284 40.8284C34.0783 41.5786 33.0609 42 32 42H28V38H32V28C32 26.9391 32.4214 25.9217 33.1716 25.1716C33.9217 24.4214 34.9391 24 36 24C34.9391 24 33.9217 23.5786 33.1716 22.8284C32.4214 22.0783 32 21.0609 32 20V10H28V6H32Z" fill="#341F97"/>
</svg>
