<svg width="72" height="73" viewBox="0 0 72 73" fill="none" xmlns="http://www.w3.org/2000/svg">
<path d="M36.0479 68.917C41.1684 64.1806 44.7072 57.9831 46.1838 51.166C46.3354 51.5288 46.5558 51.8589 46.8328 52.138C47.1104 52.4169 47.4409 52.6375 47.8049 52.787C48.575 53.0961 49.4347 53.0961 50.2048 52.787C50.5727 52.6399 50.9066 52.4191 51.1859 52.138C51.4626 51.8589 51.6827 51.5288 51.8339 51.166C51.9889 50.7851 52.0668 50.3772 52.0629 49.966V0H71.9808V49.964C71.9946 53.0415 71.3822 56.0896 70.1808 58.923C67.8622 64.4363 63.4757 68.8217 57.9619 71.139C55.6545 72.1152 53.1991 72.6957 50.6989 72.856C50.6519 72.8641 50.6044 72.8691 50.5568 72.871C47.6318 73.0705 44.6957 72.7084 41.9069 71.804C41.5269 71.685 41.1478 71.551 40.7758 71.409C39.1065 70.769 37.5193 69.9324 36.0479 68.917Z" fill="#F9F9F9"/>
<path d="M0.000126833 49.964V0H19.8781V49.964C19.8746 50.3577 19.9526 50.7479 20.1071 51.11C20.2742 51.4934 20.5117 51.842 20.8071 52.138C21.0847 52.4169 21.4151 52.6375 21.7791 52.787C22.5493 53.0961 23.409 53.0961 24.1791 52.787C24.547 52.6399 24.8809 52.4191 25.1601 52.138C25.439 51.8559 25.6616 51.5233 25.8161 51.158C25.9694 50.7789 26.0446 50.3728 26.0371 49.964V0H45.9631V49.964C45.9553 50.3755 46.0333 50.7842 46.1921 51.164C44.7155 57.9811 41.1767 64.1786 36.0561 68.915C36.0321 68.899 36.0001 68.875 35.9771 68.86C35.3605 69.2873 34.7271 69.6827 34.0771 70.046C34.0543 70.0604 34.0306 70.0734 34.0061 70.085C33.9741 70.101 33.9351 70.125 33.8871 70.149C33.0221 70.6312 32.1238 71.0513 31.1991 71.406C25.6384 73.5551 19.4592 73.4535 13.9722 71.1227C8.48518 68.7919 4.12198 64.4152 1.80811 58.921C0.604938 56.0886 -0.0101562 53.0413 0.000126833 49.964Z" fill="#F9F9F9"/>
</svg>
